<svg width="45" height="45" viewBox="0 0 45 45" fill="none" xmlns="http://www.w3.org/2000/svg">
<path d="M0 0H40C42.7614 0 45 2.23858 45 5V40C45 42.7614 42.7614 45 40 45H0V0Z" fill="#2B2B2D"/>
<g clip-path="url(#clip0_12329_15968)">
<path d="M24.6067 24.6017L27.1033 27.0984L26.275 27.9267L23.7783 25.43C23.3194 25.7956 22.8178 26.0756 22.2733 26.27C21.6978 26.4723 21.1067 26.5734 20.5 26.5734C19.5511 26.5734 18.6683 26.3361 17.8517 25.8617C17.0583 25.395 16.4322 24.765 15.9733 23.9717C15.4911 23.155 15.25 22.2723 15.25 21.3234C15.25 20.3745 15.4911 19.4917 15.9733 18.675C16.4322 17.8817 17.0583 17.2556 17.8517 16.7967C18.6683 16.3145 19.5511 16.0734 20.5 16.0734C21.4489 16.0734 22.3317 16.3145 23.1483 16.7967C23.9417 17.2556 24.5717 17.8817 25.0383 18.675C25.5128 19.4917 25.75 20.3745 25.75 21.3234C25.75 21.93 25.6489 22.5211 25.4467 23.0967C25.2522 23.6411 24.9722 24.1428 24.6067 24.6017ZM23.4283 24.17C23.7939 23.7967 24.0778 23.3689 24.28 22.8867C24.4822 22.3889 24.5833 21.8678 24.5833 21.3234C24.5833 20.5845 24.3967 19.8961 24.0233 19.2584C23.6656 18.6439 23.1794 18.1578 22.565 17.8C21.9272 17.4267 21.2389 17.24 20.5 17.24C19.7611 17.24 19.0728 17.4267 18.435 17.8C17.8206 18.1578 17.3344 18.6439 16.9767 19.2584C16.6033 19.8961 16.4167 20.5845 16.4167 21.3234C16.4167 22.0623 16.6033 22.7506 16.9767 23.3884C17.3344 24.0028 17.8206 24.4889 18.435 24.8467C19.0728 25.22 19.7611 25.4067 20.5 25.4067C21.0444 25.4067 21.5656 25.3056 22.0633 25.1034C22.5456 24.9011 22.9733 24.6173 23.3467 24.2517L23.4283 24.17Z" fill="white"/>
</g>
<defs>
<clipPath id="clip0_12329_15968">
<rect width="14.48" height="14" fill="white" transform="matrix(1 0 0 -1 15.25 29)"/>
</clipPath>
</defs>
</svg>
